<mxfile host="drawio-plugin" modified="2024-01-30T22:53:33.187Z" agent="5.0 (Windows NT 10.0; Win64; x64) AppleWebKit/537.36 (KHTML, like Gecko) Chrome/111.0.0.0 Safari/537.36" etag="ejHEgqUKWo7VGNBbt3ii" version="20.5.3" type="embed"><diagram id="23iRSUPoRavnBvh4doch" name="Page-1"><mxGraphModel dx="489" dy="1927" grid="1" gridSize="10" guides="1" tooltips="1" connect="1" arrows="1" fold="1" page="1" pageScale="1" pageWidth="827" pageHeight="1169" math="0" shadow="0"><root><mxCell id="0"/><mxCell id="1" parent="0"/><mxCell id="8" style="edgeStyle=orthogonalEdgeStyle;rounded=0;orthogonalLoop=1;jettySize=auto;html=1;entryX=0.5;entryY=0;entryDx=0;entryDy=0;" parent="1" source="2" target="18" edge="1"><mxGeometry relative="1" as="geometry"/></mxCell><mxCell id="2" value="INICIO" style="ellipse;whiteSpace=wrap;html=1;" parent="1" vertex="1"><mxGeometry x="330" y="-110" width="120" height="80" as="geometry"/></mxCell><mxCell id="21" style="edgeStyle=orthogonalEdgeStyle;rounded=0;orthogonalLoop=1;jettySize=auto;html=1;entryX=0.5;entryY=0;entryDx=0;entryDy=0;" edge="1" parent="1" source="5" target="20"><mxGeometry relative="1" as="geometry"/></mxCell><mxCell id="5" value="DAME OTRO NUMERO" style="shape=document;whiteSpace=wrap;html=1;boundedLbl=1;" parent="1" vertex="1"><mxGeometry x="330" y="280" width="120" height="80" as="geometry"/></mxCell><mxCell id="6" value="FIN" style="ellipse;whiteSpace=wrap;html=1;" parent="1" vertex="1"><mxGeometry x="330" y="544.5" width="120" height="80" as="geometry"/></mxCell><mxCell id="9" style="edgeStyle=orthogonalEdgeStyle;rounded=0;orthogonalLoop=1;jettySize=auto;html=1;" parent="1" source="7" target="5" edge="1"><mxGeometry relative="1" as="geometry"><mxPoint x="400" y="320" as="targetPoint"/></mxGeometry></mxCell><mxCell id="7" value="LEER NUMERO 1" style="shape=parallelogram;perimeter=parallelogramPerimeter;whiteSpace=wrap;html=1;fixedSize=1;" parent="1" vertex="1"><mxGeometry x="330" y="170" width="120" height="60" as="geometry"/></mxCell><mxCell id="19" style="edgeStyle=orthogonalEdgeStyle;rounded=0;orthogonalLoop=1;jettySize=auto;html=1;" edge="1" parent="1" source="18" target="7"><mxGeometry relative="1" as="geometry"/></mxCell><mxCell id="18" value="DAME UN NUMERO" style="shape=document;whiteSpace=wrap;html=1;boundedLbl=1;" vertex="1" parent="1"><mxGeometry x="330" y="50" width="120" height="80" as="geometry"/></mxCell><mxCell id="22" style="edgeStyle=orthogonalEdgeStyle;rounded=0;orthogonalLoop=1;jettySize=auto;html=1;entryX=0.5;entryY=0;entryDx=0;entryDy=0;" edge="1" parent="1" source="20" target="6"><mxGeometry relative="1" as="geometry"/></mxCell><mxCell id="20" value="LEER NUMERO 2" style="shape=parallelogram;perimeter=parallelogramPerimeter;whiteSpace=wrap;html=1;fixedSize=1;" vertex="1" parent="1"><mxGeometry x="330" y="420" width="120" height="60" as="geometry"/></mxCell></root></mxGraphModel></diagram></mxfile>